<svg width="24" height="24" viewBox="0 0 24 24" fill="none" xmlns="http://www.w3.org/2000/svg">
<mask id="mask0_304_225" style="mask-type:alpha" maskUnits="userSpaceOnUse" x="0" y="0" width="24" height="24">
<rect width="24" height="24" fill="#D9D9D9"/>
</mask>
<g mask="url(#mask0_304_225)">
<path d="M19.95 22.2017C17.8667 22.2017 15.8083 21.7435 13.775 20.827C11.7417 19.9105 9.89167 18.6115 8.225 16.9299C6.55833 15.2482 5.27083 13.3816 4.3625 11.3301C3.45417 9.27851 3 7.20172 3 5.0997C3 4.79701 3.1 4.54477 3.3 4.34297C3.5 4.14118 3.75 4.04028 4.05 4.04028H8.1C8.33333 4.04028 8.54167 4.12016 8.725 4.27991C8.90833 4.43967 9.01667 4.62885 9.05 4.84746L9.7 8.37885C9.73333 8.64791 9.725 8.87492 9.675 9.0599C9.625 9.24488 9.53333 9.40463 9.4 9.53916L6.975 12.0111C7.30833 12.6333 7.70417 13.2345 8.1625 13.8147C8.62083 14.3948 9.125 14.954 9.675 15.4921C10.1917 16.0134 10.7333 16.4968 11.3 16.9425C11.8667 17.3881 12.4667 17.7959 13.1 18.1658L15.45 15.7948C15.6 15.6434 15.7958 15.5299 16.0375 15.4542C16.2792 15.3786 16.5167 15.3575 16.75 15.3912L20.2 16.0975C20.4333 16.1647 20.625 16.2866 20.775 16.4632C20.925 16.6398 21 16.8374 21 17.056V21.1423C21 21.445 20.9 21.6972 20.7 21.899C20.5 22.1008 20.25 22.2017 19.95 22.2017ZM6.025 10.0941L7.675 8.4293L7.25 6.05822H5.025C5.10833 6.74768 5.225 7.42874 5.375 8.10138C5.525 8.77403 5.74167 9.43826 6.025 10.0941ZM14.975 19.1244C15.625 19.4102 16.2875 19.6373 16.9625 19.8054C17.6375 19.9736 18.3167 20.0829 19 20.1333V17.9136L16.65 17.4343L14.975 19.1244Z" fill="#181818"/>
</g>
</svg>
