<svg width="40" height="40" viewBox="0 0 40 40" fill="none" xmlns="http://www.w3.org/2000/svg">
<mask id="mask0_610_1287" style="mask-type:alpha" maskUnits="userSpaceOnUse" x="0" y="0" width="40" height="40">
<rect width="40" height="40" fill="#D9D9D9"/>
</mask>
<g mask="url(#mask0_610_1287)">
<path d="M18.3333 15.8333C19.0363 15.8333 19.6287 15.5924 20.1103 15.1104C20.5923 14.6288 20.8333 14.0364 20.8333 13.3333C20.8333 12.6303 20.5923 12.0379 20.1103 11.5563C19.6287 11.0743 19.0363 10.8333 18.3333 10.8333C17.6302 10.8333 17.0378 11.0743 16.5562 11.5563C16.0742 12.0379 15.8333 12.6303 15.8333 13.3333C15.8333 14.0364 16.0742 14.6288 16.5562 15.1104C17.0378 15.5924 17.6302 15.8333 18.3333 15.8333ZM18.3653 22.5C19.2948 22.5 20.1906 22.3269 21.0528 21.9808C21.9151 21.6347 22.6955 21.1358 23.3941 20.4842C22.5288 20.0375 21.6735 19.7063 20.8283 19.4904C19.9833 19.2746 19.1623 19.1667 18.3653 19.1667C17.3759 19.1667 16.432 19.2799 15.5337 19.5063C14.6351 19.7329 13.892 20.0589 13.3045 20.4842C13.9817 21.1358 14.7569 21.6347 15.6299 21.9808C16.5027 22.3269 17.4145 22.5 18.3653 22.5ZM35.2949 34.8396L26.532 26.0771C25.3076 27.0726 24.0452 27.8365 22.7449 28.3688C21.4449 28.9007 19.9744 29.1667 18.3333 29.1667C14.846 29.1667 11.8909 27.9551 9.46784 25.5321C7.04478 23.109 5.83325 20.1539 5.83325 16.6667C5.83325 13.1794 7.04478 10.2243 9.46784 7.80125C11.8909 5.3782 14.846 4.16667 18.3333 4.16667C21.8205 4.16667 24.7756 5.3782 27.1987 7.80125C29.6217 10.2243 30.8333 13.1794 30.8333 16.6667C30.8333 18.3078 30.5673 19.7838 30.0353 21.0946C29.5031 22.4054 28.7392 23.6731 27.7437 24.8975L36.4741 33.6283L35.2949 34.8396ZM18.3333 27.5C21.3246 27.5 23.8781 26.4424 25.9937 24.3271C28.1089 22.2115 29.1666 19.6581 29.1666 16.6667C29.1666 13.6753 28.1089 11.1218 25.9937 9.00626C23.8781 6.89098 21.3246 5.83334 18.3333 5.83334C15.3419 5.83334 12.7884 6.89098 10.6728 9.00626C8.55756 11.1218 7.49992 13.6753 7.49992 16.6667C7.49992 19.6581 8.55756 22.2115 10.6728 24.3271C12.7884 26.4424 15.3419 27.5 18.3333 27.5Z" fill="#7A1CA7"/>
</g>
</svg>
