<svg width="40" height="40" viewBox="0 0 40 40" fill="none" xmlns="http://www.w3.org/2000/svg">
<mask id="mask0_610_1281" style="mask-type:alpha" maskUnits="userSpaceOnUse" x="0" y="0" width="40" height="40">
<rect width="40" height="40" fill="#D9D9D9"/>
</mask>
<g mask="url(#mask0_610_1281)">
<path d="M15.1796 19.5962L18.9871 15.7787L15.5642 12.3462L13.6346 14.2758L12.455 13.0962L14.375 11.1667L11.1217 7.91333L7.30458 11.7308L15.1796 19.5962ZM28.2371 32.6633L32.0546 28.8462L28.8013 25.5929L26.8717 27.5129L25.6925 26.3333L27.6121 24.4037L24.2117 21.0129L20.4038 24.8204L28.2371 32.6633ZM11.9229 33.3333H6.66667V28.0771L13.9904 20.7533L5 11.7308L11.1217 5.60916L20.1858 14.6408L27.6313 7.18583C27.8151 7.00222 28.0086 6.86972 28.2117 6.78833C28.4144 6.70722 28.6313 6.66666 28.8621 6.66666C29.0929 6.66666 29.3099 6.70722 29.5129 6.78833C29.716 6.86972 29.9093 7.00222 30.0929 7.18583L32.8142 10.0129C32.9978 10.1965 33.1249 10.3899 33.1954 10.5929C33.266 10.796 33.3013 11.0129 33.3013 11.2437C33.3013 11.4743 33.266 11.6842 33.1954 11.8733C33.1249 12.0625 32.9978 12.2489 32.8142 12.4325L25.4325 19.8558L34.3908 28.8783L28.2692 35L19.2467 26.0096L11.9229 33.3333ZM8.33333 31.6667H11.2117L27.5771 15.3108L24.6892 12.4229L8.33333 28.7883V31.6667ZM26.1538 13.8558L24.6892 12.4229L27.5771 15.3108L26.1538 13.8558Z" fill="#7A1CA7"/>
</g>
</svg>
