<svg width="40" height="40" viewBox="0 0 40 40" fill="none" xmlns="http://www.w3.org/2000/svg">
<mask id="mask0_610_1275" style="mask-type:alpha" maskUnits="userSpaceOnUse" x="0" y="0" width="40" height="40">
<rect width="40" height="40" fill="#D9D9D9"/>
</mask>
<g mask="url(#mask0_610_1275)">
<path d="M9.35925 33.3333C8.59203 33.3333 7.95147 33.0764 7.43758 32.5625C6.92369 32.0486 6.66675 31.4081 6.66675 30.6408V9.35917C6.66675 8.59195 6.92369 7.95139 7.43758 7.4375C7.95147 6.92361 8.59203 6.66667 9.35925 6.66667H23.3367L21.6701 8.33334H9.35925C9.10258 8.33334 8.86744 8.44014 8.65383 8.65375C8.44022 8.86736 8.33341 9.1025 8.33341 9.35917V30.6408C8.33341 30.8975 8.44022 31.1326 8.65383 31.3463C8.86744 31.5599 9.10258 31.6667 9.35925 31.6667H30.6409C30.8976 31.6667 31.1327 31.5599 31.3463 31.3463C31.5599 31.1326 31.6667 30.8975 31.6667 30.6408V18.1604L33.3334 16.4938V30.6408C33.3334 31.4081 33.0765 32.0486 32.5626 32.5625C32.0487 33.0764 31.4081 33.3333 30.6409 33.3333H9.35925ZM16.6667 23.3333V18.9742L31.5738 4.0675C31.7574 3.88361 31.9508 3.75639 32.1538 3.68584C32.3569 3.61528 32.5706 3.58 32.7951 3.58C33.0045 3.58 33.2091 3.61528 33.4088 3.68584C33.6086 3.75639 33.7897 3.87292 33.9522 4.03542L35.8047 5.83334C35.9819 6.01723 36.1165 6.21973 36.2084 6.44084C36.3004 6.66195 36.3463 6.88472 36.3463 7.10917C36.3463 7.33334 36.3126 7.54528 36.2451 7.745C36.1779 7.945 36.0524 8.13681 35.8688 8.32042L20.8655 23.3333H16.6667ZM18.3334 21.6667H20.1538L31.263 10.5575L30.3526 9.6475L29.3367 8.67292L18.3334 19.6763V21.6667Z" fill="#7A1CA7"/>
</g>
</svg>
