<?xml version="1.0" standalone="no"?>
<!DOCTYPE svg PUBLIC "-//W3C//DTD SVG 20010904//EN"
 "http://www.w3.org/TR/2001/REC-SVG-20010904/DTD/svg10.dtd">
<svg version="1.0" xmlns="http://www.w3.org/2000/svg"
 width="206.000000pt" height="206.000000pt" viewBox="0 0 206.000000 206.000000"
 preserveAspectRatio="xMidYMid meet">

<g transform="translate(0.000000,206.000000) scale(0.100000,-0.100000)"
fill="#000000" stroke="none">
<path d="M505 1416 c-42 -18 -93 -79 -101 -121 -10 -54 29 -124 86 -152 55
-29 82 -29 138 -2 46 23 72 63 72 114 0 24 -2 25 -65 25 -51 0 -65 -3 -65 -15
0 -11 12 -15 51 -15 48 0 50 -1 44 -22 -4 -13 -18 -34 -31 -48 -20 -20 -34
-25 -74 -25 -40 0 -54 5 -79 29 -53 51 -53 125 0 178 26 27 34 29 82 26 28 -2
58 -6 66 -9 7 -2 16 2 18 9 5 14 -54 42 -89 42 -13 -1 -37 -7 -53 -14z"/>
<path d="M783 1305 c-38 -16 -53 -42 -53 -90 0 -50 44 -95 93 -95 43 0 92 38
100 77 7 40 -16 89 -52 107 -36 19 -47 19 -88 1z m96 -59 c27 -57 -32 -116
-84 -82 -30 20 -35 75 -9 101 26 26 76 16 93 -19z"/>
<path d="M1518 1304 c-85 -45 -51 -184 45 -184 43 0 88 33 70 50 -9 10 -17 9
-34 -4 -30 -21 -42 -20 -70 2 l-22 19 71 28 c40 16 72 30 72 32 0 16 -25 45
-50 58 -36 18 -47 18 -82 -1z m79 -39 c2 -6 -14 -17 -34 -25 -21 -8 -41 -16
-45 -18 -15 -7 -8 27 8 43 18 17 65 17 71 0z"/>
<path d="M1219 1297 c-68 -52 -39 -170 42 -171 19 0 42 4 52 8 14 7 17 3 17
-17 0 -51 -62 -76 -102 -40 -13 11 -22 13 -29 6 -14 -14 35 -53 67 -53 36 0
71 20 83 47 6 13 11 71 11 128 0 87 -3 105 -15 105 -8 0 -15 -5 -15 -10 0 -7
-6 -7 -19 0 -26 13 -72 12 -92 -3z m99 -35 c30 -39 3 -112 -43 -112 -28 0 -65
35 -65 61 0 64 70 97 108 51z"/>
<path d="M240 983 c0 -16 57 -213 63 -220 16 -15 35 11 51 71 10 36 22 68 26
71 5 3 19 -28 32 -67 35 -105 48 -101 83 24 15 57 30 109 33 116 2 6 -3 12
-11 12 -10 0 -21 -27 -37 -91 -13 -50 -26 -87 -30 -82 -4 4 -18 38 -30 76 -13
37 -29 67 -36 67 -7 0 -25 -37 -40 -82 -15 -46 -29 -78 -31 -72 -2 6 -14 49
-26 95 -13 45 -28 84 -35 87 -7 2 -12 0 -12 -5z"/>
<path d="M850 875 c0 -70 4 -115 10 -115 6 0 10 11 10 24 0 13 7 29 15 36 13
11 18 10 30 -6 35 -49 43 -56 54 -53 7 3 0 20 -20 47 l-32 43 34 35 c21 22 28
34 18 34 -8 0 -30 -16 -49 -35 -19 -19 -38 -35 -42 -35 -4 0 -8 32 -8 70 0 40
-4 70 -10 70 -6 0 -10 -45 -10 -115z"/>
<path d="M561 896 c-33 -35 -31 -93 4 -123 54 -47 122 -19 132 54 5 35 2 45
-20 67 -35 34 -85 35 -116 2z m91 -13 c27 -24 24 -79 -6 -98 -59 -39 -117 44
-66 95 24 24 47 25 72 3z"/>
<path d="M730 840 c0 -47 4 -80 10 -80 6 0 10 18 10 39 0 57 15 89 45 97 14 3
25 10 25 15 0 15 -32 10 -52 -8 -17 -15 -18 -15 -18 0 0 10 -4 17 -10 17 -6 0
-10 -33 -10 -80z"/>
<path d="M1006 898 c-21 -30 -5 -55 44 -68 45 -12 57 -25 40 -45 -16 -20 -39
-19 -62 2 -13 12 -22 13 -29 6 -8 -8 -4 -15 12 -27 46 -32 109 -12 109 34 0
22 -31 44 -73 54 -20 5 -27 12 -25 24 4 20 45 29 61 13 15 -15 27 -14 27 3 0
32 -82 36 -104 4z"/>
<path d="M1150 800 c0 -73 4 -120 10 -120 6 0 10 23 10 51 0 50 0 50 22 35 76
-54 157 52 97 128 -23 29 -74 36 -98 14 -11 -10 -14 -10 -18 0 -14 38 -23 -2
-23 -108z m106 92 c39 -26 36 -90 -6 -112 -39 -21 -86 26 -74 75 9 37 51 57
80 37z"/>
<path d="M1351 906 c-15 -17 -1 -28 19 -15 25 15 59 10 70 -10 15 -29 13 -30
-25 -24 -76 12 -116 -61 -52 -97 25 -14 30 -13 57 2 17 9 30 13 30 8 0 -6 5
-10 10 -10 6 0 10 28 10 63 0 49 -4 68 -18 80 -23 21 -85 22 -101 3z m87 -74
c16 -11 6 -39 -20 -53 -40 -22 -78 17 -46 49 14 14 47 16 66 4z"/>
<path d="M1525 895 c-72 -71 21 -187 103 -129 25 17 29 34 7 34 -8 0 -15 -4
-15 -9 0 -14 -41 -21 -61 -10 -26 13 -41 46 -34 69 15 47 60 64 89 34 23 -22
42 -7 20 17 -25 28 -79 25 -109 -6z"/>
<path d="M1691 894 c-62 -79 27 -184 108 -128 17 12 20 19 11 28 -7 7 -13 8
-18 0 -21 -32 -92 -15 -92 21 0 12 14 15 64 15 l65 0 -10 33 c-11 40 -34 57
-75 57 -23 0 -39 -8 -53 -26z m93 -10 c24 -23 11 -34 -40 -34 -47 0 -54 9 -28
34 20 20 48 20 68 0z"/>
</g>
</svg>
