<svg width="24" height="24" viewBox="0 0 24 24" fill="none" xmlns="http://www.w3.org/2000/svg">
<mask id="mask0_304_235" style="mask-type:alpha" maskUnits="userSpaceOnUse" x="0" y="0" width="24" height="24">
<rect width="24" height="24" fill="#D9D9D9"/>
</mask>
<g mask="url(#mask0_304_235)">
<path d="M12 13.4261C12.55 13.4261 13.0208 13.2285 13.4125 12.8333C13.8042 12.4382 14 11.9631 14 11.4082C14 10.8532 13.8042 10.3782 13.4125 9.98301C13.0208 9.58783 12.55 9.39024 12 9.39024C11.45 9.39024 10.9792 9.58783 10.5875 9.98301C10.1958 10.3782 10 10.8532 10 11.4082C10 11.9631 10.1958 12.4382 10.5875 12.8333C10.9792 13.2285 11.45 13.4261 12 13.4261ZM12 20.842C14.0333 18.9586 15.5417 17.2476 16.525 15.7089C17.5083 14.1702 18 12.8039 18 11.61C18 9.77701 17.4208 8.27617 16.2625 7.10745C15.1042 5.93872 13.6833 5.35436 12 5.35436C10.3167 5.35436 8.89583 5.93872 7.7375 7.10745C6.57917 8.27617 6 9.77701 6 11.61C6 12.8039 6.49167 14.1702 7.475 15.7089C8.45833 17.2476 9.96667 18.9586 12 20.842ZM12 23.5158C9.31667 21.212 7.3125 19.0721 5.9875 17.0962C4.6625 15.1203 4 13.2916 4 11.61C4 9.08755 4.80417 7.07802 6.4125 5.58138C8.02083 4.08474 9.88333 3.33643 12 3.33643C14.1167 3.33643 15.9792 4.08474 17.5875 5.58138C19.1958 7.07802 20 9.08755 20 11.61C20 13.2916 19.3375 15.1203 18.0125 17.0962C16.6875 19.0721 14.6833 21.212 12 23.5158Z" fill="#181818"/>
</g>
</svg>
