<svg width="99" height="46" viewBox="0 0 99 46" fill="none" xmlns="http://www.w3.org/2000/svg">
<path d="M11.82 33.71C9.83999 33.71 8.01998 33.25 6.35999 32.33C4.71998 31.41 3.40999 30.13 2.42999 28.49C1.46999 26.83 0.98999 24.97 0.98999 22.91C0.98999 20.85 1.46999 19 2.42999 17.36C3.40999 15.72 4.71998 14.44 6.35999 13.52C8.01998 12.6 9.83999 12.14 11.82 12.14C13.8 12.14 15.61 12.6 17.25 13.52C18.91 14.44 20.21 15.72 21.15 17.36C22.11 19 22.59 20.85 22.59 22.91C22.59 24.97 22.11 26.83 21.15 28.49C20.19 30.13 18.89 31.41 17.25 32.33C15.61 33.25 13.8 33.71 11.82 33.71ZM11.82 29.03C13.5 29.03 14.84 28.47 15.84 27.35C16.86 26.23 17.37 24.75 17.37 22.91C17.37 21.05 16.86 19.57 15.84 18.47C14.84 17.35 13.5 16.79 11.82 16.79C10.12 16.79 8.75999 17.34 7.73999 18.44C6.74001 19.54 6.23999 21.03 6.23999 22.91C6.23999 24.77 6.74001 26.26 7.73999 27.38C8.75999 28.48 10.12 29.03 11.82 29.03ZM36.184 33.5L31.804 25.55H30.574V33.5H25.444V12.44H34.054C35.714 12.44 37.124 12.73 38.284 13.31C39.464 13.89 40.344 14.69 40.924 15.71C41.504 16.71 41.794 17.83 41.794 19.07C41.794 20.47 41.394 21.72 40.594 22.82C39.814 23.92 38.654 24.7 37.114 25.16L41.974 33.5H36.184ZM30.574 21.92H33.754C34.694 21.92 35.394 21.69 35.854 21.23C36.334 20.77 36.574 20.12 36.574 19.28C36.574 18.48 36.334 17.85 35.854 17.39C35.394 16.93 34.694 16.7 33.754 16.7H30.574V21.92ZM63.822 33.71C61.842 33.71 60.0219 33.25 58.362 32.33C56.7219 31.41 55.4121 30.13 54.432 28.49C53.472 26.83 52.992 24.97 52.992 22.91C52.992 20.85 53.472 19 54.432 17.36C55.4121 15.72 56.7219 14.44 58.362 13.52C60.0219 12.6 61.842 12.14 63.822 12.14C65.802 12.14 67.6119 12.6 69.252 13.52C70.9118 14.44 72.2121 15.72 73.152 17.36C74.112 19 74.592 20.85 74.592 22.91C74.592 24.97 74.112 26.83 73.152 28.49C72.192 30.13 70.8921 31.41 69.252 32.33C67.6119 33.25 65.802 33.71 63.822 33.71ZM63.822 29.03C65.502 29.03 66.8421 28.47 67.842 27.35C68.862 26.23 69.372 24.75 69.372 22.91C69.372 21.05 68.862 19.57 67.842 18.47C66.8421 17.35 65.502 16.79 63.822 16.79C62.1219 16.79 60.762 17.34 59.742 18.44C58.7421 19.54 58.242 21.03 58.242 22.91C58.242 24.77 58.7421 26.26 59.742 27.38C60.762 28.48 62.1219 29.03 63.822 29.03ZM96.2859 33.5H91.1559L82.5759 20.51V33.5H77.4459V12.44H82.5759L91.1559 25.49V12.44H96.2859V33.5Z" fill="#7A1CA7"/>
<path d="M47.3571 1.35715L52.7387 12.6071H41.9754L47.3571 1.35715Z" fill="#7A1CA7"/>
<path d="M41.1429 36.7449L47.3876 30.5V37.1122L41.1429 43.3571V36.7449Z" fill="#7A1CA7"/>
<path d="M53.4857 36.7449L47.2405 30.5V37.1122L53.4857 43.3571V36.7449Z" fill="#7A1CA7"/>
<path d="M50.1429 12.5H44.5714V33.5H50.1429V12.5Z" fill="#7A1CA7"/>
</svg>
