<svg width="24" height="24" viewBox="0 0 24 24" fill="none" xmlns="http://www.w3.org/2000/svg">
<mask id="mask0_304_219" style="mask-type:alpha" maskUnits="userSpaceOnUse" x="0" y="0" width="24" height="24">
<rect width="24" height="24" fill="#D9D9D9"/>
</mask>
<g mask="url(#mask0_304_219)">
<path d="M4 20.8879C3.45 20.8879 2.97917 20.6903 2.5875 20.2951C2.19583 19.8999 2 19.4249 2 18.8699V6.76232C2 6.20739 2.19583 5.73233 2.5875 5.33715C2.97917 4.94197 3.45 4.74438 4 4.74438H20C20.55 4.74438 21.0208 4.94197 21.4125 5.33715C21.8042 5.73233 22 6.20739 22 6.76232V18.8699C22 19.4249 21.8042 19.8999 21.4125 20.2951C21.0208 20.6903 20.55 20.8879 20 20.8879H4ZM12 13.8251L4 8.78026V18.8699H20V8.78026L12 13.8251ZM12 11.8072L20 6.76232H4L12 11.8072ZM4 8.78026V6.76232V18.8699V8.78026Z" fill="#181818"/>
</g>
</svg>
