<svg width="100" height="100" viewBox="0 0 100 100" fill="none" xmlns="http://www.w3.org/2000/svg">
<mask id="mask0_610_1311" style="mask-type:alpha" maskUnits="userSpaceOnUse" x="0" y="0" width="100" height="100">
<rect width="100" height="100" fill="#D9D9D9"/>
</mask>
<g mask="url(#mask0_610_1311)">
<path d="M19.2312 79.1666C17.3132 79.1666 15.7118 78.5243 14.4271 77.2396C13.1424 75.9548 12.5 74.3535 12.5 72.4354V27.5646C12.5 25.6465 13.1424 24.0451 14.4271 22.7604C15.7118 21.4757 17.3132 20.8333 19.2312 20.8333H80.7688C82.6868 20.8333 84.2882 21.4757 85.5729 22.7604C86.8576 24.0451 87.5 25.6465 87.5 27.5646V72.4354C87.5 74.3535 86.8576 75.9548 85.5729 77.2396C84.2882 78.5243 82.6868 79.1666 80.7688 79.1666H19.2312ZM50 50.4812L16.6667 28.6854V72.4354C16.6667 73.1833 16.9069 73.7979 17.3875 74.2791C17.8687 74.7597 18.4833 75 19.2312 75H80.7688C81.5167 75 82.1313 74.7597 82.6125 74.2791C83.0931 73.7979 83.3333 73.1833 83.3333 72.4354V28.6854L50 50.4812ZM50 45.8333L82.051 25H17.949L50 45.8333ZM16.6667 28.6854V25V72.4354C16.6667 73.1833 16.9069 73.7979 17.3875 74.2791C17.8687 74.7597 18.4833 75 19.2312 75H16.6667V28.6854Z" fill="#7A1CA7"/>
</g>
</svg>
