<svg width="100" height="100" viewBox="0 0 100 100" fill="none" xmlns="http://www.w3.org/2000/svg">
<mask id="mask0_610_1293" style="mask-type:alpha" maskUnits="userSpaceOnUse" x="0" y="0" width="100" height="100">
<rect width="100" height="100" fill="#D9D9D9"/>
</mask>
<g mask="url(#mask0_610_1293)">
<path d="M35.4166 72.9167H64.5833V68.75H35.4166V72.9167ZM35.4166 56.25H64.5833V52.0833H35.4166V56.25ZM27.5645 87.5C25.6464 87.5 24.0451 86.8576 22.7603 85.5729C21.4756 84.2882 20.8333 82.6868 20.8333 80.7688V19.2312C20.8333 17.3132 21.4756 15.7118 22.7603 14.4271C24.0451 13.1424 25.6464 12.5 27.5645 12.5H60.4166L79.1666 31.25V80.7688C79.1666 82.6868 78.5242 84.2882 77.2395 85.5729C75.9548 86.8576 74.3534 87.5 72.4353 87.5H27.5645ZM58.3333 33.3333V16.6667H27.5645C26.9228 16.6667 26.335 16.9337 25.801 17.4677C25.2669 18.0017 24.9999 18.5896 24.9999 19.2312V80.7688C24.9999 81.4104 25.2669 81.9983 25.801 82.5323C26.335 83.0663 26.9228 83.3333 27.5645 83.3333H72.4353C73.077 83.3333 73.6648 83.0663 74.1989 82.5323C74.7329 81.9983 74.9999 81.4104 74.9999 80.7688V33.3333H58.3333Z" fill="#7A1CA7"/>
</g>
</svg>
