<svg width="100" height="100" viewBox="0 0 100 100" fill="none" xmlns="http://www.w3.org/2000/svg">
<mask id="mask0_610_1305" style="mask-type:alpha" maskUnits="userSpaceOnUse" x="0" y="0" width="100" height="100">
<rect width="100" height="100" fill="#D9D9D9"/>
</mask>
<g mask="url(#mask0_610_1305)">
<path d="M18.75 89.5833V31.7313C18.75 29.8132 19.3924 28.2118 20.6771 26.9271C21.9618 25.6424 23.5632 25 25.4812 25H62.0187C63.9368 25 65.5382 25.6424 66.8229 26.9271C68.1076 28.2118 68.75 29.8132 68.75 31.7313V89.5833L43.75 78.8458L18.75 89.5833ZM22.9167 83.125L43.75 74.1667L64.5833 83.125V31.7313C64.5833 31.0896 64.3163 30.5017 63.7823 29.9677C63.2483 29.4337 62.6604 29.1667 62.0187 29.1667H25.4812C24.8396 29.1667 24.2517 29.4337 23.7177 29.9677C23.1837 30.5017 22.9167 31.0896 22.9167 31.7313V83.125ZM77.0833 77.0833V19.2302C77.0833 18.5892 76.8163 18.0017 76.2823 17.4677C75.7483 16.9337 75.1604 16.6667 74.5187 16.6667H31.25V12.5H74.5187C76.4368 12.5 78.0382 13.1424 79.3229 14.4271C80.6076 15.7118 81.25 17.3128 81.25 19.2302V77.0833H77.0833Z" fill="#7A1CA7"/>
</g>
</svg>
