<svg width="30" height="30" viewBox="0 0 30 30" fill="none" xmlns="http://www.w3.org/2000/svg">
<mask id="mask0_360_92" style="mask-type:alpha" maskUnits="userSpaceOnUse" x="0" y="0" width="30" height="30">
<path d="M13.4272 20.3927C14.9245 20.3927 16.3276 19.9407 17.4953 19.1685L21.6198 23.3025C21.8929 23.5662 22.2414 23.698 22.618 23.698C23.3996 23.698 23.9741 23.0859 23.9741 22.3137C23.9741 21.9559 23.8516 21.6075 23.588 21.3438L19.4916 17.2286C20.3391 16.0233 20.8382 14.5637 20.8382 12.9816C20.8382 8.90412 17.5047 5.57056 13.4272 5.57056C9.3591 5.57056 6.01611 8.90412 6.01611 12.9816C6.01611 17.0591 9.34968 20.3927 13.4272 20.3927ZM13.4272 18.4151C10.442 18.4151 7.99365 15.9668 7.99365 12.9816C7.99365 9.99648 10.442 7.5481 13.4272 7.5481C16.4123 7.5481 18.8607 9.99648 18.8607 12.9816C18.8607 15.9668 16.4123 18.4151 13.4272 18.4151Z" fill="#1C1C1E"/>
</mask>
<g mask="url(#mask0_360_92)">
<rect width="30" height="30" rx="15" fill="#7A1CA7"/>
</g>
</svg>
