<svg width="48" height="50" viewBox="0 0 48 50" fill="none" xmlns="http://www.w3.org/2000/svg">
<path fill-rule="evenodd" clip-rule="evenodd" d="M39.3519 2.28112C39.2786 1.98578 39.1282 1.71521 38.916 1.49708C38.7039 1.27896 38.4376 1.12111 38.1444 1.03969C37.8512 0.958263 37.5416 0.956188 37.2474 1.03367C36.9531 1.11116 36.6847 1.26542 36.4696 1.48069L29.599 8.35135C29.3894 8.56133 29.2379 8.82199 29.159 9.10795C29.0801 9.39392 29.0767 9.69543 29.1489 9.98313L30.3857 14.9437C30.3694 14.9596 30.3534 14.9756 30.3376 14.9918L22.1237 23.2057C21.6686 23.6941 21.4208 24.3401 21.4326 25.0076C21.4444 25.6751 21.7148 26.312 22.1868 26.784C22.6589 27.2561 23.2957 27.5265 23.9632 27.5383C24.6307 27.55 25.2767 27.3023 25.7651 26.8472L33.9859 18.6367C34.0021 18.6198 34.0182 18.6026 34.034 18.5852L38.9912 19.8254C39.2789 19.8976 39.5804 19.8942 39.8663 19.8153C40.1523 19.7364 40.413 19.5849 40.6229 19.3753L47.4936 12.5047C47.7098 12.2897 47.8648 12.021 47.9428 11.7263C48.0208 11.4316 48.019 11.1215 47.9375 10.8277C47.856 10.5339 47.6978 10.2671 47.4791 10.0547C47.2605 9.84229 46.9892 9.6919 46.6932 9.61899L40.8222 8.15553L39.3519 2.28112ZM25.0334 3.58654C25.0806 4.26801 24.8553 4.94033 24.4069 5.45569C23.9585 5.97104 23.3239 6.28726 22.6424 6.33481C19.0532 6.58355 15.6108 7.85746 12.7243 10.0052C9.8378 12.1529 7.62853 15.0841 6.35901 18.4505C5.08949 21.8169 4.81309 25.4771 5.56265 28.996C6.3122 32.5149 8.05621 35.7446 10.5874 38.3015C13.1187 40.8583 16.3307 42.6347 19.8419 43.4197C23.3531 44.2046 27.0158 43.9651 30.3948 42.7295C33.7739 41.494 36.7272 39.3143 38.9038 36.4496C41.0805 33.5849 42.389 30.1555 42.6738 26.5689C42.728 25.8874 43.0508 25.2553 43.571 24.8118C44.0912 24.3682 44.7664 24.1495 45.4479 24.2037C46.1294 24.2579 46.7614 24.5806 47.205 25.1008C47.6486 25.6211 47.8673 26.2962 47.8131 26.9777C47.4495 31.5474 45.7818 35.9168 43.0081 39.5666C40.2344 43.2164 36.4713 45.9933 32.1658 47.5673C27.8603 49.1414 23.1935 49.4464 18.7198 48.4462C14.2461 47.4459 10.1535 45.1825 6.92832 41.9247C3.70313 38.667 1.4809 34.5519 0.525641 30.0684C-0.429618 25.5848 -0.0777503 20.9213 1.53944 16.6319C3.15663 12.3424 5.97116 8.60734 9.64865 5.87042C13.3261 3.13349 17.712 1.50976 22.2852 1.19212C22.9666 1.14492 23.6389 1.37028 24.1543 1.81864C24.6697 2.267 24.9859 2.9051 25.0334 3.58654ZM22.7249 14.9197C22.8483 15.2348 22.9085 15.5712 22.9019 15.9095C22.8954 16.2479 22.8222 16.5816 22.6866 16.8917C22.551 17.2018 22.3557 17.4821 22.1117 17.7167C21.8678 17.9513 21.58 18.1355 21.2649 18.2588C20.1382 18.7008 19.1395 19.4165 18.3589 20.3413C17.5783 21.2662 17.0405 22.3709 16.794 23.5558C16.5476 24.7406 16.6003 25.9682 16.9474 27.1276C17.2945 28.287 17.9251 29.3416 18.7821 30.1961C19.6391 31.0506 20.6955 31.6781 21.8559 32.0218C23.0163 32.3655 24.244 32.4146 25.4281 32.1648C26.6123 31.9149 27.7155 31.3738 28.638 30.5906C29.5606 29.8073 30.2734 28.8064 30.712 27.6785C30.8347 27.3632 31.0183 27.0751 31.2524 26.8307C31.4864 26.5863 31.7663 26.3904 32.0761 26.2542C32.3858 26.118 32.7194 26.0441 33.0577 26.0368C33.396 26.0295 33.7324 26.0889 34.0477 26.2116C34.3631 26.3343 34.6512 26.518 34.8955 26.752C35.1399 26.986 35.3358 27.2659 35.472 27.5757C35.6082 27.8854 35.6821 28.219 35.6894 28.5573C35.6967 28.8956 35.6373 29.232 35.5146 29.5473C34.7654 31.4735 33.5479 33.1825 31.9723 34.5199C30.3966 35.8574 28.5125 36.781 26.4903 37.2074C24.468 37.6337 22.3714 37.5494 20.3899 36.962C18.4084 36.3745 16.6046 35.3025 15.1415 33.8428C13.6784 32.3831 12.6021 30.5818 12.0101 28.6018C11.418 26.6217 11.3287 24.5252 11.7503 22.502C12.172 20.4787 13.0912 18.5924 14.4249 17.0137C15.7586 15.4349 17.4648 14.2134 19.3892 13.4597C20.0252 13.2114 20.7337 13.2258 21.3591 13.4995C21.9845 13.7733 22.4758 14.284 22.7249 14.9197Z" fill="white"/>
</svg>
